<?xml version="1.0" encoding="UTF-8" standalone="no"?>
<svg
   id="7d1857de-4e1d-4ad3-937b-baacafe47dc3"
   data-name="Layer 1"
   width="1030.01"
   height="729.86"
   viewBox="0 0 1030.01 729.86"
   version="1.1"
   sodipodi:docname="react.svg"
   inkscape:version="1.1 (c68e22c387, 2021-05-23)"
   xmlns:inkscape="http://www.inkscape.org/namespaces/inkscape"
   xmlns:sodipodi="http://sodipodi.sourceforge.net/DTD/sodipodi-0.dtd"
   xmlns:xlink="http://www.w3.org/1999/xlink"
   xmlns="http://www.w3.org/2000/svg"
   xmlns:svg="http://www.w3.org/2000/svg"
   xmlns:rdf="http://www.w3.org/1999/02/22-rdf-syntax-ns#"
   xmlns:cc="http://creativecommons.org/ns#"
   xmlns:dc="http://purl.org/dc/elements/1.1/">
  <sodipodi:namedview
     id="namedview273"
     pagecolor="#ffffff"
     bordercolor="#666666"
     borderopacity="1.0"
     inkscape:pageshadow="2"
     inkscape:pageopacity="0.0"
     inkscape:pagecheckerboard="0"
     showgrid="false"
     inkscape:zoom="0.80606261"
     inkscape:cx="523.53253"
     inkscape:cy="380.24342"
     inkscape:window-width="1920"
     inkscape:window-height="1017"
     inkscape:window-x="-8"
     inkscape:window-y="-8"
     inkscape:window-maximized="1"
     inkscape:current-layer="7d1857de-4e1d-4ad3-937b-baacafe47dc3" />
  <defs
     id="defs10">
    <linearGradient
       id="a5312bde-8c7e-4767-9e17-08a43f21bf92"
       x1="889.13"
       y1="701.85"
       x2="889.13"
       y2="363.3"
       gradientUnits="userSpaceOnUse">
      <stop
         offset="0"
         stop-color="gray"
         stop-opacity="0.25"
         id="stop2" />
      <stop
         offset="0.54"
         stop-color="gray"
         stop-opacity="0.12"
         id="stop4" />
      <stop
         offset="1"
         stop-color="gray"
         stop-opacity="0.1"
         id="stop6" />
    </linearGradient>
    <linearGradient
       id="016d359d-0d48-4404-968f-1612e9b5c7a7"
       x1="376.53"
       y1="777.06"
       x2="376.53"
       y2="381.85"
       xlink:href="#a5312bde-8c7e-4767-9e17-08a43f21bf92" />
  </defs>
  <title
     id="title12">static_assets</title>
  <g
     id="g6017"
     transform="matrix(0.65742773,0,0,0.57777789,251.5505,80.76206)">
    <path
       d="m 152.24,663.66 c 0,0 8.38,11 -3.87,27.5 -12.25,16.5 -22.37,30.52 -18.26,40.84 0,0 18.48,-30.73 33.52,-31.16 15.04,-0.43 5.16,-18.7 -11.39,-37.18 z"
       transform="translate(-84.99,-85.07)"
       fill="#6c63ff"
       id="path46"
       style="fill:#d45500" />
    <path
       d="m 152.24,663.66 a 13.57,13.57 0 0 1 1.76,3.44 c 14.68,17.24 22.49,33.33 8.39,33.74 -13.14,0.38 -28.9,23.87 -32.68,29.81 a 12.74,12.74 0 0 0 0.45,1.35 c 0,0 18.48,-30.73 33.52,-31.16 15.04,-0.43 5.11,-18.7 -11.44,-37.18 z"
       transform="translate(-84.99,-85.07)"
       opacity="0.1"
       id="path48" />
    <path
       d="m 167.82,677.63 c 0,3.86 -0.43,7 -1,7 -0.57,0 -1,-3.13 -1,-7 0,-3.87 0.54,-2 1.07,-2 0.53,0 0.93,-1.86 0.93,2 z"
       transform="translate(-84.99,-85.07)"
       fill="#ffd037"
       id="path50" />
    <path
       d="m 173.17,682.23 c -3.39,1.85 -6.34,3 -6.59,2.49 -0.25,-0.51 2.28,-2.35 5.67,-4.19 3.39,-1.84 2.05,-0.5 2.31,0 0.26,0.5 1.99,-0.15 -1.39,1.7 z"
       transform="translate(-84.99,-85.07)"
       fill="#ffd037"
       id="path52" />
    <path
       d="m 108,663.66 c 0,0 -8.38,11 3.87,27.5 12.25,16.5 22.35,30.51 18.26,40.83 0,0 -18.48,-30.73 -33.52,-31.16 C 81.57,700.4 91.43,682.14 108,663.66 Z"
       transform="translate(-84.99,-85.07)"
       fill="#6c63ff"
       id="path54"
       style="fill:#ff6600" />
    <path
       d="m 108,663.66 a 13.57,13.57 0 0 0 -1.71,3.44 c -14.68,17.24 -22.49,33.33 -8.39,33.74 13.14,0.38 28.9,23.87 32.68,29.81 a 12.74,12.74 0 0 1 -0.45,1.35 c 0,0 -18.48,-30.73 -33.52,-31.16 -15.04,-0.43 -5.18,-18.7 11.39,-37.18 z"
       transform="translate(-84.99,-85.07)"
       opacity="0.1"
       id="path56" />
    <path
       d="m 92.4,677.63 c 0,3.86 0.43,7 1,7 0.57,0 1,-3.13 1,-7 0,-3.87 -0.54,-2 -1.07,-2 -0.53,0 -0.93,-1.86 -0.93,2 z"
       transform="translate(-84.99,-85.07)"
       fill="#ffd037"
       id="path58" />
    <path
       d="m 87.05,682.23 c 3.39,1.85 6.34,3 6.59,2.49 0.25,-0.51 -2.28,-2.35 -5.67,-4.19 -3.39,-1.84 -2.05,-0.5 -2.31,0 -0.26,0.5 -1.99,-0.15 1.39,1.7 z"
       transform="translate(-84.99,-85.07)"
       fill="#ffd037"
       id="path60" />
    <path
       d="m 95.07,730.56 c 0,0 23.43,-0.72 30.49,-5.75 7.06,-5.03 36,-11 37.79,-3 1.79,8 35.21,40.11 8.76,40.32 -26.45,0.21 -61.46,-4.12 -68.51,-8.41 -7.05,-4.29 -8.53,-23.16 -8.53,-23.16 z"
       transform="translate(-84.99,-85.07)"
       fill="#a8a8a8"
       id="path62" />
    <path
       d="m 172.58,759.35 c -26.45,0.21 -61.46,-4.12 -68.51,-8.41 -5.37,-3.27 -7.51,-15 -8.22,-20.41 h -0.78 c 0,0 1.48,18.9 8.53,23.19 7.05,4.29 42.06,8.63 68.51,8.41 7.64,-0.06 10.27,-2.78 10.13,-6.8 -1.06,2.46 -3.97,3.98 -9.66,4.02 z"
       transform="translate(-84.99,-85.07)"
       opacity="0.2"
       id="path64" />
  </g>
  <ellipse
     cx="495.31076"
     cy="450.31375"
     rx="138.95392"
     ry="23.735117"
     fill="#6c63ff"
     opacity="0.1"
     id="ellipse14"
     style="fill:#d45500;stroke-width:0.616317" />
  <path
     d="m 645.93173,451.96378 a 7.6721816,6.742668 0 0 0 2.51795,-3.33956 c 0.32871,-1.32889 -0.31557,-2.91778 -1.76191,-3.40311 -1.61727,-0.54311 -3.3463,0.43911 -4.65459,1.43867 -1.30828,0.99955 -2.81379,2.132 -4.52967,1.91822 a 6.8898426,6.0551123 0 0 0 2.13006,-5.668 2.6954537,2.3688894 0 0 0 -0.59168,-1.15556 c -0.90068,-0.84355 -2.52452,-0.47955 -3.60271,0.18489 -3.41862,2.11467 -4.37189,6.19378 -4.39161,9.86845 -0.34186,-1.32312 -0.0526,-2.704 -0.0657,-4.04445 -0.0131,-1.34044 -0.4339,-2.88889 -1.7356,-3.59378 a 5.2594218,4.6222231 0 0 0 -2.62972,-0.54889 c -1.53838,-0.052 -3.24769,0.0867 -4.29957,1.07467 -1.31486,1.22489 -0.96642,3.28756 0.17093,4.62222 1.13735,1.33467 2.85981,2.19556 4.45078,3.13156 a 9.8614159,8.6666684 0 0 1 3.18195,2.66356 3.0044447,2.640445 0 0 1 0.23668,0.47377 h 9.63131 a 26.842774,23.590671 0 0 0 5.94315,-3.62266 z"
     fill="#6c63ff"
     id="path66"
     style="fill:#d45500;stroke-width:0.616317" />
  <path
     d="m 252.9048,425.7879 c 20.91935,23.3769 12.79355,57.52935 -0.49964,84.87558 -4.45079,9.15778 -9.48668,18.84711 -7.60644,28.66356 2.29442,12.00622 14.46341,20.8 27.2964,25.42223 23.33868,8.48177 51.27936,6.45955 72.71808,-5.26356 18.53289,-10.13423 31.80635,-26.61245 50.65481,-36.28445 31.55653,-16.17778 71.69906,-10.07067 105.95105,1.07466 24.23278,7.88667 50.72712,18.14801 74.8087,9.90312 16.94191,-5.77778 28.65727,-19.91601 35.0409,-34.88045 3.08333,-7.22801 5.31859,-15.02223 11.17627,-20.80001 3.49751,-3.40311 8.06006,-5.824 12.74095,-7.85778 42.7328,-18.61022 96.64187,-8.66667 138.11241,-29.28178 28.013,-13.936 45.94763,-40.23068 53.90908,-67.64624 7.96145,-27.41556 7.01475,-56.16579 4.99645,-84.39601 -1.43319,-20.06623 -4.00374,-41.48446 -18.59206,-56.97468 -15.42983,-16.38001 -41.91759,-22.47556 -65.85453,-19.36134 -23.93695,3.11422 -45.64521,14.26534 -64.71061,27.33467 -23.85806,16.33378 -45.9805,36.67734 -75.27548,43.29868 -19.94636,4.50667 -40.93145,2.03955 -61.50894,1.19022 -34.39662,-1.42711 -68.79981,1.73333 -103.00577,5.2 -32.74648,3.328 -65.74278,6.99111 -96.92457,16.35112 -22.07643,6.62711 -39.77438,18.65067 -60.62141,27.05156 -13.58903,5.47733 -28.40746,6.99111 -41.26674,13.96489 -15.85058,8.59156 -30.37316,23.53867 -26.29711,41.02223 3.82623,16.64578 23.64767,24.98889 34.7582,37.39378 z"
     fill="#6c63ff"
     opacity="0.1"
     id="path68"
     style="fill:#d4aa00;stroke-width:0.616317" />
  <path
     d="m 560.58114,501.07353 c 1.5318,-1.25377 2.97157,-2.73289 3.41862,-4.52978 0.44705,-1.79688 -0.42733,-3.95777 -2.38646,-4.62222 -2.18924,-0.73955 -4.53625,0.57778 -6.31131,1.94711 -1.77505,1.36934 -3.81308,2.88889 -6.1338,2.6 a 9.342048,8.2102239 0 0 0 2.88611,-7.68444 3.6552982,3.2124451 0 0 0 -0.80206,-1.56 c -1.21624,-1.15556 -3.4252,-0.65289 -4.87812,0.24844 -4.60199,2.88889 -5.91685,8.39511 -5.94972,13.37556 -0.46677,-1.79689 -0.0723,-3.66889 -0.0855,-5.512 -0.0131,-1.84311 -0.58511,-3.88267 -2.35359,-4.87645 a 7.0936452,6.2342235 0 0 0 -3.58956,-0.73955 c -2.08404,-0.0693 -4.40476,0.11555 -5.82481,1.456 -1.76848,1.664 -1.31485,4.45467 0.2301,6.28622 1.54496,1.83156 3.87882,2.98134 6.02861,4.24667 a 13.37208,11.752002 0 0 1 4.30616,3.61111 4.0694776,3.5764452 0 0 1 0.32213,0.64711 h 13.06309 a 36.395199,31.985784 0 0 0 8.06007,-4.89378 z"
     fill="#6c63ff"
     id="path270"
     style="fill:#d45500;stroke-width:0.616317" />
  <metadata
     id="metadata6520">
    <rdf:RDF>
      <cc:Work
         rdf:about="">
        <dc:title>static_assets</dc:title>
      </cc:Work>
    </rdf:RDF>
  </metadata>
  <path
     fill="#6563ff"
     d="m 480.17152,265.68146 a 28.534244,28.534244 0 1 0 38.9776,10.44305 28.535363,28.535363 0 0 0 -38.9776,-10.44305 z m 127.89307,30.95879 q -2.80993,-3.21142 -5.93012,-6.44011 2.17946,-2.29065 4.21799,-4.57731 c 25.65675,-28.82728 36.48517,-57.73714 26.45162,-75.11768 -9.62103,-16.66426 -38.24043,-21.63031 -74.06941,-14.66375 q -5.29358,1.03533 -10.529,2.33652 -1.00177,-3.45493 -2.13184,-6.87022 c -12.15485,-36.62832 -31.78929,-60.45375 -51.85735,-60.44113 -19.24316,0.009 -37.84163,22.32165 -49.70618,56.83906 q -1.75094,5.10776 -3.23955,10.30068 -3.50029,-0.85797 -7.02998,-1.58654 c -37.80217,-7.76142 -68.24953,-2.64966 -78.26358,14.74061 -9.60233,16.67641 0.43936,43.93455 24.42138,71.45201 q 3.56755,4.0841 7.33707,7.98478 c -2.96251,3.05166 -5.76779,6.10156 -8.38247,9.13436 -23.40028,27.12936 -32.86823,53.94174 -23.2814,70.54609 9.90093,17.15126 39.91979,22.75752 76.45751,15.56759 q 4.44167,-0.88034 8.83414,-1.98117 1.60908,5.61696 3.53017,11.13614 c 11.8123,33.82479 30.30644,55.41916 49.48154,55.41229 19.80284,-0.0116 39.65457,-23.21302 51.68224,-58.45676 0.94904,-2.78515 1.84905,-5.67751 2.70128,-8.65567 q 5.67416,1.41079 11.42132,2.50524 c 35.20364,6.66043 63.15024,1.42196 72.71965,-15.19436 9.88161,-17.16389 -0.30677,-45.95105 -24.83551,-73.97067 z M 367.80658,217.97196 c 6.16498,-10.70475 31.04761,-14.88104 63.68658,-8.18034 q 3.12899,0.64388 6.36502,1.43795 a 326.95838,326.95838 0 0 0 -6.73058,42.78179 333.71021,333.71021 0 0 0 -33.61437,27.05906 q -3.50621,-3.62603 -6.82516,-7.42781 l 9.6e-4,9.6e-4 c -20.54786,-23.57764 -28.66926,-45.6224 -22.88245,-55.67161 z m 62.09812,91.51911 c -8.15734,-6.17681 -15.73838,-12.50458 -22.61915,-18.86913 6.87597,-6.32491 14.46181,-12.63145 22.60254,-18.79164 q -0.43938,9.413 -0.43458,18.84037 0.006,9.41364 0.45215,18.8204 z m -0.0104,62.9601 a 115.62334,115.62334 0 0 1 -42.17531,1.48748 28.215818,28.215818 0 0 1 -19.82775,-10.48602 c -5.81684,-10.07637 1.78561,-31.603 21.79807,-54.80564 q 3.77399,-4.36179 7.79547,-8.49574 a 327.37794,327.37794 0 0 0 33.66597,27.16244 332.36284,332.36284 0 0 0 6.80966,43.33029 q -4.00997,1.00337 -8.06611,1.80655 z M 543.35086,244.00433 q -8.038,-5.06479 -16.27458,-9.80444 -8.10527,-4.66535 -16.40544,-8.98032 c 9.4745,-3.98362 18.7878,-7.38597 27.77884,-10.1585 a 291.06949,291.06949 0 0 1 4.90118,28.94326 z m -85.93155,-51.86167 c 10.1652,-29.57611 25.20618,-47.62066 36.80391,-47.62562 12.35169,-0.006 28.40004,19.46445 38.89389,51.08933 q 1.02254,3.09239 1.93325,6.21962 A 327.18206,327.18206 0 0 0 494.6733,217.3431 320.52674,320.52674 0 0 0 454.42661,201.6544 q 1.37884,-4.7919 2.9927,-9.51174 z m -6.39681,22.74825 a 292.49817,292.49817 0 0 1 27.63537,10.2574 q -16.78953,8.66445 -32.71118,18.87551 c 1.28297,-10.19348 2.9887,-19.95989 5.07581,-29.13291 z m -5.05249,122.39658 q 7.93989,5.08285 16.11194,9.78974 8.33597,4.7994 16.89386,9.19587 a 290.71831,290.71831 0 0 1 -27.87151,10.62359 c -2.11123,-9.3002 -3.83629,-19.23821 -5.13429,-29.6092 z m 87.16691,50.25658 a 115.60433,115.60433 0 0 1 -19.78127,37.27892 l -9.6e-4,9.5e-4 a 28.213422,28.213422 0 0 1 -18.98751,11.93501 c -11.6348,0.006 -26.48484,-17.33531 -36.58663,-46.26132 q -1.78449,-5.12997 -3.28348,-10.35325 a 321.28055,321.28055 0 0 0 40.40934,-16.13223 332.3229,332.3229 0 0 0 40.69979,15.6339 q -1.13758,3.97785 -2.46928,7.89802 z m 5.78759,-21.15738 c -9.0944,-2.812 -18.54286,-6.27139 -28.15413,-10.31347 q 8.12714,-4.27711 16.37219,-9.03402 8.46076,-4.88568 16.49013,-10.01597 a 290.02538,290.02538 0 0 1 -4.70819,29.36394 z m 7.1305,-75.77498 q 0.0159,14.55448 -0.90911,29.08563 c -7.87168,5.32729 -16.18207,10.529 -24.82865,15.52077 -8.61077,4.97149 -17.14246,9.54018 -25.5115,13.67493 q -13.21031,-6.33082 -25.91126,-13.64457 -12.62953,-7.26965 -24.67974,-15.48196 -1.10083,-14.52666 -1.11041,-29.10606 l 0.001,0.003 q -0.0104,-14.56917 1.08485,-29.10799 c 7.8696,-5.37426 16.11962,-10.57182 24.64938,-15.49648 8.56893,-4.948 17.2075,-9.4972 25.79831,-13.62029 q 13.04765,6.34105 25.62463,13.59104 12.62074,7.25368 24.74875,15.31707 1.04171,14.61008 1.04171,29.26488 z m 15.2859,-81.3694 c 30.69757,-5.97102 53.84333,-1.95433 59.64163,8.08801 6.17681,10.69868 -2.67587,34.32711 -24.82593,59.21743 l -9.5e-4,9.6e-4 q -1.83579,2.05962 -3.80914,4.13666 a 320.52243,320.52243 0 0 0 -34.25457,-26.96735 320.19266,320.19266 0 0 0 -6.47814,-42.32262 q 4.95806,-1.21905 9.7271,-2.15309 z m -2.07512,62.06682 a 290.21822,290.21822 0 0 1 23.34851,18.97841 289.49366,289.49366 0 0 1 -23.27437,19.30546 q 0.37227,-9.48904 0.36588,-18.98768 -0.004,-9.65025 -0.43938,-19.29619 z m 61.80159,92.48845 c -5.80709,10.08419 -28.24586,14.28925 -58.35242,8.5932 q -5.17519,-0.97622 -10.62072,-2.32581 a 320.64737,320.64737 0 0 0 6.19055,-42.84714 318.57257,318.57257 0 0 0 34.14466,-27.41505 q 2.81886,2.92848 5.36243,5.82962 v -0.001 a 115.58532,115.58532 0 0 1 22.41736,35.7558 28.209906,28.209906 0 0 1 0.85797,22.41049 z"
     id="path2"
     style="stroke-width:15.9772;fill:#5599ff" />
</svg>
