<?xml version="1.0" encoding="UTF-8" standalone="no"?>
<svg
   id="7d1857de-4e1d-4ad3-937b-baacafe47dc3"
   data-name="Layer 1"
   width="1030.01"
   height="729.86"
   viewBox="0 0 1030.01 729.86"
   version="1.1"
   sodipodi:docname="setting1.svg"
   inkscape:version="1.1 (c68e22c387, 2021-05-23)"
   xmlns:inkscape="http://www.inkscape.org/namespaces/inkscape"
   xmlns:sodipodi="http://sodipodi.sourceforge.net/DTD/sodipodi-0.dtd"
   xmlns:xlink="http://www.w3.org/1999/xlink"
   xmlns="http://www.w3.org/2000/svg"
   xmlns:svg="http://www.w3.org/2000/svg"
   xmlns:rdf="http://www.w3.org/1999/02/22-rdf-syntax-ns#"
   xmlns:cc="http://creativecommons.org/ns#"
   xmlns:dc="http://purl.org/dc/elements/1.1/">
  <sodipodi:namedview
     id="namedview273"
     pagecolor="#ffffff"
     bordercolor="#666666"
     borderopacity="1.0"
     inkscape:pageshadow="2"
     inkscape:pageopacity="0.0"
     inkscape:pagecheckerboard="0"
     showgrid="false"
     inkscape:zoom="0.80606261"
     inkscape:cx="523.53253"
     inkscape:cy="380.24342"
     inkscape:window-width="1920"
     inkscape:window-height="1017"
     inkscape:window-x="-8"
     inkscape:window-y="-8"
     inkscape:window-maximized="1"
     inkscape:current-layer="7d1857de-4e1d-4ad3-937b-baacafe47dc3" />
  <defs
     id="defs10">
    <linearGradient
       id="a5312bde-8c7e-4767-9e17-08a43f21bf92"
       x1="889.13"
       y1="701.85"
       x2="889.13"
       y2="363.3"
       gradientUnits="userSpaceOnUse">
      <stop
         offset="0"
         stop-color="gray"
         stop-opacity="0.25"
         id="stop2" />
      <stop
         offset="0.54"
         stop-color="gray"
         stop-opacity="0.12"
         id="stop4" />
      <stop
         offset="1"
         stop-color="gray"
         stop-opacity="0.1"
         id="stop6" />
    </linearGradient>
    <linearGradient
       id="016d359d-0d48-4404-968f-1612e9b5c7a7"
       x1="376.53"
       y1="777.06"
       x2="376.53"
       y2="381.85"
       xlink:href="#a5312bde-8c7e-4767-9e17-08a43f21bf92" />
  </defs>
  <title
     id="title12">static_assets</title>
  <g
     id="g6017"
     transform="matrix(0.65742773,0,0,0.57777789,251.5505,80.76206)">
    <path
       d="m 152.24,663.66 c 0,0 8.38,11 -3.87,27.5 -12.25,16.5 -22.37,30.52 -18.26,40.84 0,0 18.48,-30.73 33.52,-31.16 15.04,-0.43 5.16,-18.7 -11.39,-37.18 z"
       transform="translate(-84.99,-85.07)"
       fill="#6c63ff"
       id="path46"
       style="fill:#d45500" />
    <path
       d="m 152.24,663.66 a 13.57,13.57 0 0 1 1.76,3.44 c 14.68,17.24 22.49,33.33 8.39,33.74 -13.14,0.38 -28.9,23.87 -32.68,29.81 a 12.74,12.74 0 0 0 0.45,1.35 c 0,0 18.48,-30.73 33.52,-31.16 15.04,-0.43 5.11,-18.7 -11.44,-37.18 z"
       transform="translate(-84.99,-85.07)"
       opacity="0.1"
       id="path48" />
    <path
       d="m 167.82,677.63 c 0,3.86 -0.43,7 -1,7 -0.57,0 -1,-3.13 -1,-7 0,-3.87 0.54,-2 1.07,-2 0.53,0 0.93,-1.86 0.93,2 z"
       transform="translate(-84.99,-85.07)"
       fill="#ffd037"
       id="path50" />
    <path
       d="m 173.17,682.23 c -3.39,1.85 -6.34,3 -6.59,2.49 -0.25,-0.51 2.28,-2.35 5.67,-4.19 3.39,-1.84 2.05,-0.5 2.31,0 0.26,0.5 1.99,-0.15 -1.39,1.7 z"
       transform="translate(-84.99,-85.07)"
       fill="#ffd037"
       id="path52" />
    <path
       d="m 108,663.66 c 0,0 -8.38,11 3.87,27.5 12.25,16.5 22.35,30.51 18.26,40.83 0,0 -18.48,-30.73 -33.52,-31.16 C 81.57,700.4 91.43,682.14 108,663.66 Z"
       transform="translate(-84.99,-85.07)"
       fill="#6c63ff"
       id="path54"
       style="fill:#ff6600" />
    <path
       d="m 108,663.66 a 13.57,13.57 0 0 0 -1.71,3.44 c -14.68,17.24 -22.49,33.33 -8.39,33.74 13.14,0.38 28.9,23.87 32.68,29.81 a 12.74,12.74 0 0 1 -0.45,1.35 c 0,0 -18.48,-30.73 -33.52,-31.16 -15.04,-0.43 -5.18,-18.7 11.39,-37.18 z"
       transform="translate(-84.99,-85.07)"
       opacity="0.1"
       id="path56" />
    <path
       d="m 92.4,677.63 c 0,3.86 0.43,7 1,7 0.57,0 1,-3.13 1,-7 0,-3.87 -0.54,-2 -1.07,-2 -0.53,0 -0.93,-1.86 -0.93,2 z"
       transform="translate(-84.99,-85.07)"
       fill="#ffd037"
       id="path58" />
    <path
       d="m 87.05,682.23 c 3.39,1.85 6.34,3 6.59,2.49 0.25,-0.51 -2.28,-2.35 -5.67,-4.19 -3.39,-1.84 -2.05,-0.5 -2.31,0 -0.26,0.5 -1.99,-0.15 1.39,1.7 z"
       transform="translate(-84.99,-85.07)"
       fill="#ffd037"
       id="path60" />
    <path
       d="m 95.07,730.56 c 0,0 23.43,-0.72 30.49,-5.75 7.06,-5.03 36,-11 37.79,-3 1.79,8 35.21,40.11 8.76,40.32 -26.45,0.21 -61.46,-4.12 -68.51,-8.41 -7.05,-4.29 -8.53,-23.16 -8.53,-23.16 z"
       transform="translate(-84.99,-85.07)"
       fill="#a8a8a8"
       id="path62" />
    <path
       d="m 172.58,759.35 c -26.45,0.21 -61.46,-4.12 -68.51,-8.41 -5.37,-3.27 -7.51,-15 -8.22,-20.41 h -0.78 c 0,0 1.48,18.9 8.53,23.19 7.05,4.29 42.06,8.63 68.51,8.41 7.64,-0.06 10.27,-2.78 10.13,-6.8 -1.06,2.46 -3.97,3.98 -9.66,4.02 z"
       transform="translate(-84.99,-85.07)"
       opacity="0.2"
       id="path64" />
  </g>
  <ellipse
     cx="495.31076"
     cy="450.31375"
     rx="138.95392"
     ry="23.735117"
     fill="#6c63ff"
     opacity="0.1"
     id="ellipse14"
     style="fill:#d45500;stroke-width:0.616317" />
  <path
     d="m 645.93173,451.96378 a 7.6721816,6.742668 0 0 0 2.51795,-3.33956 c 0.32871,-1.32889 -0.31557,-2.91778 -1.76191,-3.40311 -1.61727,-0.54311 -3.3463,0.43911 -4.65459,1.43867 -1.30828,0.99955 -2.81379,2.132 -4.52967,1.91822 a 6.8898426,6.0551123 0 0 0 2.13006,-5.668 2.6954537,2.3688894 0 0 0 -0.59168,-1.15556 c -0.90068,-0.84355 -2.52452,-0.47955 -3.60271,0.18489 -3.41862,2.11467 -4.37189,6.19378 -4.39161,9.86845 -0.34186,-1.32312 -0.0526,-2.704 -0.0657,-4.04445 -0.0131,-1.34044 -0.4339,-2.88889 -1.7356,-3.59378 a 5.2594218,4.6222231 0 0 0 -2.62972,-0.54889 c -1.53838,-0.052 -3.24769,0.0867 -4.29957,1.07467 -1.31486,1.22489 -0.96642,3.28756 0.17093,4.62222 1.13735,1.33467 2.85981,2.19556 4.45078,3.13156 a 9.8614159,8.6666684 0 0 1 3.18195,2.66356 3.0044447,2.640445 0 0 1 0.23668,0.47377 h 9.63131 a 26.842774,23.590671 0 0 0 5.94315,-3.62266 z"
     fill="#6c63ff"
     id="path66"
     style="fill:#d45500;stroke-width:0.616317" />
  <path
     d="m 252.9048,425.7879 c 20.91935,23.3769 12.79355,57.52935 -0.49964,84.87558 -4.45079,9.15778 -9.48668,18.84711 -7.60644,28.66356 2.29442,12.00622 14.46341,20.8 27.2964,25.42223 23.33868,8.48177 51.27936,6.45955 72.71808,-5.26356 18.53289,-10.13423 31.80635,-26.61245 50.65481,-36.28445 31.55653,-16.17778 71.69906,-10.07067 105.95105,1.07466 24.23278,7.88667 50.72712,18.14801 74.8087,9.90312 16.94191,-5.77778 28.65727,-19.91601 35.0409,-34.88045 3.08333,-7.22801 5.31859,-15.02223 11.17627,-20.80001 3.49751,-3.40311 8.06006,-5.824 12.74095,-7.85778 42.7328,-18.61022 96.64187,-8.66667 138.11241,-29.28178 28.013,-13.936 45.94763,-40.23068 53.90908,-67.64624 7.96145,-27.41556 7.01475,-56.16579 4.99645,-84.39601 -1.43319,-20.06623 -4.00374,-41.48446 -18.59206,-56.97468 -15.42983,-16.38001 -41.91759,-22.47556 -65.85453,-19.36134 -23.93695,3.11422 -45.64521,14.26534 -64.71061,27.33467 -23.85806,16.33378 -45.9805,36.67734 -75.27548,43.29868 -19.94636,4.50667 -40.93145,2.03955 -61.50894,1.19022 -34.39662,-1.42711 -68.79981,1.73333 -103.00577,5.2 -32.74648,3.328 -65.74278,6.99111 -96.92457,16.35112 -22.07643,6.62711 -39.77438,18.65067 -60.62141,27.05156 -13.58903,5.47733 -28.40746,6.99111 -41.26674,13.96489 -15.85058,8.59156 -30.37316,23.53867 -26.29711,41.02223 3.82623,16.64578 23.64767,24.98889 34.7582,37.39378 z"
     fill="#6c63ff"
     opacity="0.1"
     id="path68"
     style="fill:#d4aa00;stroke-width:0.616317" />
  <path
     d="m 560.58114,501.07353 c 1.5318,-1.25377 2.97157,-2.73289 3.41862,-4.52978 0.44705,-1.79688 -0.42733,-3.95777 -2.38646,-4.62222 -2.18924,-0.73955 -4.53625,0.57778 -6.31131,1.94711 -1.77505,1.36934 -3.81308,2.88889 -6.1338,2.6 a 9.342048,8.2102239 0 0 0 2.88611,-7.68444 3.6552982,3.2124451 0 0 0 -0.80206,-1.56 c -1.21624,-1.15556 -3.4252,-0.65289 -4.87812,0.24844 -4.60199,2.88889 -5.91685,8.39511 -5.94972,13.37556 -0.46677,-1.79689 -0.0723,-3.66889 -0.0855,-5.512 -0.0131,-1.84311 -0.58511,-3.88267 -2.35359,-4.87645 a 7.0936452,6.2342235 0 0 0 -3.58956,-0.73955 c -2.08404,-0.0693 -4.40476,0.11555 -5.82481,1.456 -1.76848,1.664 -1.31485,4.45467 0.2301,6.28622 1.54496,1.83156 3.87882,2.98134 6.02861,4.24667 a 13.37208,11.752002 0 0 1 4.30616,3.61111 4.0694776,3.5764452 0 0 1 0.32213,0.64711 h 13.06309 a 36.395199,31.985784 0 0 0 8.06007,-4.89378 z"
     fill="#6c63ff"
     id="path270"
     style="fill:#d45500;stroke-width:0.616317" />
  <metadata
     id="metadata6520">
    <rdf:RDF>
      <cc:Work
         rdf:about="">
        <dc:title>static_assets</dc:title>
      </cc:Work>
    </rdf:RDF>
  </metadata>
  <path
     fill="#6563ff"
     d="m 630.39465,306.15596 a 16.505373,16.505373 0 0 1 0,-21.78709 l 21.12678,-23.76774 a 16.505373,16.505373 0 0 0 1.98065,-19.31129 l -33.01077,-57.10857 a 16.505373,16.505373 0 0 0 -17.66072,-7.92259 l -31.03012,6.27204 A 16.505373,16.505373 0 0 1 552.8194,171.63718 l -10.06834,-30.20484 a 16.505373,16.505373 0 0 0 -15.6801,-11.22365 h -66.02148 a 16.505373,16.505373 0 0 0 -16.50539,11.22365 l -9.243,30.20484 a 16.505373,16.505373 0 0 1 -18.98118,10.89354 l -31.85537,-6.27204 a 16.505373,16.505373 0 0 0 -16.50537,7.92259 l -33.01075,57.10857 a 16.505373,16.505373 0 0 0 1.65055,19.31129 l 20.96182,23.76774 a 16.505373,16.505373 0 0 1 0,21.78709 l -20.96182,23.76775 a 16.505373,16.505373 0 0 0 -1.65055,19.31127 l 33.01075,57.10859 a 16.505373,16.505373 0 0 0 17.66075,7.92259 l 31.0301,-6.27205 a 16.505373,16.505373 0 0 1 18.98118,10.89354 l 10.06828,30.20484 a 16.505373,16.505373 0 0 0 16.50537,11.22365 h 66.02148 a 16.505373,16.505373 0 0 0 15.68011,-11.22365 l 10.06824,-30.20484 a 16.505373,16.505373 0 0 1 18.98118,-10.89354 l 31.03013,6.27205 a 16.505373,16.505373 0 0 0 17.66071,-7.92259 l 33.01077,-57.10859 a 16.505373,16.505373 0 0 0 -1.98064,-19.31127 z m -24.59309,22.1172 13.20433,14.85484 -21.12691,36.64193 -19.47629,-3.9613 a 49.516118,49.516118 0 0 0 -56.94356,33.01076 l -6.27204,18.48601 h -42.25375 l -5.94193,-18.81613 a 49.516118,49.516118 0 0 0 -56.94354,-33.01074 l -19.47634,3.96129 -21.45698,-36.47688 13.2043,-14.85483 a 49.516118,49.516118 0 0 0 0,-66.0215 l -13.2043,-14.85482 21.12687,-36.31182 19.47635,3.96128 a 49.516118,49.516118 0 0 0 56.94353,-33.01074 l 6.27204,-18.65107 h 42.25375 l 6.27204,18.81612 a 49.516118,49.516118 0 0 0 56.94356,33.01074 l 19.47629,-3.96128 21.12691,36.64193 -13.20433,14.85482 a 49.516118,49.516118 0 0 0 0,65.69139 z M 494.06022,229.24093 a 66.02149,66.02149 0 1 0 66.02146,66.02149 66.02149,66.02149 0 0 0 -66.02146,-66.02149 z m 0,99.03223 a 33.010745,33.010745 0 1 1 33.01074,-33.01074 33.010745,33.010745 0 0 1 -33.01074,33.01074 z"
     id="path2"
     style="fill:#d45e00;fill-opacity:1;stroke-width:16.5053" />
</svg>
