<?xml version="1.0" encoding="UTF-8" standalone="no"?>
<svg
   id="ae5f5559-570c-4c14-9324-22f1786600a2"
   data-name="Layer 1"
   width="1015.12774"
   height="526"
   viewBox="0 0 1015.12774 526"
   version="1.1"
   sodipodi:docname="undraw_static_website_0107.svg"
   inkscape:version="1.1 (c68e22c387, 2021-05-23)"
   xmlns:inkscape="http://www.inkscape.org/namespaces/inkscape"
   xmlns:sodipodi="http://sodipodi.sourceforge.net/DTD/sodipodi-0.dtd"
   xmlns="http://www.w3.org/2000/svg"
   xmlns:svg="http://www.w3.org/2000/svg">
  <defs
     id="defs75" />
  <sodipodi:namedview
     id="namedview73"
     pagecolor="#ffffff"
     bordercolor="#666666"
     borderopacity="1.0"
     inkscape:pageshadow="2"
     inkscape:pageopacity="0.0"
     inkscape:pagecheckerboard="0"
     showgrid="false"
     inkscape:zoom="2.3346816"
     inkscape:cx="314.81809"
     inkscape:cy="410.97681"
     inkscape:window-width="1920"
     inkscape:window-height="1057"
     inkscape:window-x="1912"
     inkscape:window-y="-8"
     inkscape:window-maximized="1"
     inkscape:current-layer="ae5f5559-570c-4c14-9324-22f1786600a2" />
  <title
     id="title2">static_website</title>
  <rect
     x="600.64726"
     y="143.87206"
     width="300.3462"
     height="532.4319"
     transform="translate(59.46229 833.98563) rotate(-74.20991)"
     fill="#3f3d56"
     id="rect4"
     style="fill:#6c63ff;fill-opacity:1" />
  <circle
     cx="451.92875"
     cy="18.22867"
     r="4.24322"
     fill="#6c63ff"
     id="circle6"
     style="fill:#e6e6e6" />
  <circle
     cx="464.99468"
     cy="21.92352"
     r="4.24322"
     fill="#6c63ff"
     id="circle8"
     style="fill:#e6e6e6" />
  <circle
     cx="478.06061"
     cy="25.61836"
     r="4.24322"
     fill="#6c63ff"
     id="circle10"
     style="fill:#e6e6e6" />
  <path
     d="M807.41965,376.52959a49.57145,49.57145,0,0,0-20.70373.48865,49.483,49.483,0,0,0,1.46357-20.91986,49.19363,49.19363,0,0,0-18.50638,11.94255,49.193,49.193,0,0,0-9.51152-19.86558,49.48244,49.48244,0,0,0-9.70867,18.58827A49.57169,49.57169,0,0,0,733.07115,355.505s-3.09015,15.716,4.34937,28.61187c6.62151,11.47786,19.34349,16.84908,22.06311,17.8924l.06371.07642.03418-.03883c.276.10469.43054.15809.43054.15809s.05845-.30187.139-.84058c.04889-.0604.09834-.12183.15239-.18961.01056.086.02049.16416.03051.24122-.21353.50116-.32189.789-.32189.789s.15966.0354.44964.09076l.00877.051.09429-.03174c2.8634.53547,16.51408,2.622,28.16579-3.68844C801.82182,391.5365,807.41965,376.52959,807.41965,376.52959Z"
     transform="translate(-92.43613 -187)"
     fill="#6c63ff"
     id="path12"
     style="fill:#e6e6e6" />
  <circle
     cx="689.59221"
     cy="138.35165"
     r="11.03237"
     fill="#6c63ff"
     id="circle14"
     style="fill:#e6e6e6" />
  <rect
     x="581.48421"
     y="421.57144"
     width="344.54948"
     height="7.4962"
     transform="translate(51.74221 -376.0588) rotate(15.79009)"
     fill="#6c63ff"
     id="rect16"
     style="fill:#e6e6e6" />
  <rect
     x="600.67236"
     y="426.50275"
     width="59.40508"
     height="59.40508"
     transform="translate(55.49076 -341.31883) rotate(15.79009)"
     fill="#6c63ff"
     id="rect18"
     style="fill:#e6e6e6" />
  <rect
     x="706.83303"
     y="456.52336"
     width="59.40508"
     height="59.40508"
     transform="translate(67.66575 -369.07379) rotate(15.79009)"
     fill="#6c63ff"
     id="rect20"
     style="fill:#e6e6e6" />
  <rect
     x="812.9937"
     y="486.54396"
     width="59.40508"
     height="59.40508"
     transform="translate(79.84073 -396.82874) rotate(15.79009)"
     fill="#6c63ff"
     id="rect22"
     style="fill:#e6e6e6" />
  <rect
     x="596.30192"
     y="496.12363"
     width="44.12949"
     height="5.09186"
     transform="translate(66.59275 -336.44884) rotate(15.79009)"
     fill="#6c63ff"
     id="rect24"
     style="fill:#e6e6e6" />
  <rect
     x="702.46259"
     y="526.14423"
     width="44.12949"
     height="5.09186"
     transform="translate(78.76773 -364.20379) rotate(15.79009)"
     fill="#6c63ff"
     id="rect26"
     style="fill:#e6e6e6" />
  <rect
     x="808.62326"
     y="556.16484"
     width="44.12949"
     height="5.09186"
     transform="translate(90.94272 -391.95875) rotate(15.79009)"
     fill="#6c63ff"
     id="rect28"
     style="fill:#e6e6e6" />
  <ellipse
     cx="794.12774"
     cy="515.5"
     rx="221"
     ry="10.5"
     fill="#d0cde1"
     id="ellipse32"
     style="fill:#e8e8e8;fill-opacity:0.29803923;opacity:0.3" />
  <ellipse
     cx="304.11002"
     cy="394.05801"
     rx="245.84279"
     ry="10.5"
     fill="#d0cde1"
     id="ellipse32-6"
     style="opacity:0.3;fill:#e8e8e8;fill-opacity:0.298039;stroke-width:1.05471" />
  <path
     d="M778.1721,621H841.93v26.66361H804.83571v26.6636h37.09761v26.662H778.1721Zm76.51116,0h63.75958v23.1856h-37.096v4.63679h37.096v53.32722H854.68491V677.80192h37.096v-4.63679H854.68161V621Zm76.51281,0h63.75958v23.1856h-37.096v4.63679h37.096v53.32722H931.19607V677.80192h37.096v-4.63679H931.19773V621Z"
     transform="translate(-92.43613 -187)"
     fill="#3f3d56"
     id="path34"
     style="fill:#999999;fill-opacity:1" />
  <path
     d="M220.92612,499h26.30227v25.98626h24.061V499h26.30389v78.69291H271.291V551.342H247.23v26.3509H220.92774V499Zm111.25393,26.09646H309.02821V499h72.6254v26.09646H358.48719v52.59645H332.18492V525.09646h-.00487ZM393.17929,499h27.42535l16.87042,27.65061L454.32925,499h27.43668v78.69291H455.57061V538.6884L437.475,566.668h-.45376L418.91436,538.6884v39.00451H393.17929Zm101.67621,0h26.31038v52.68234h36.9885v26.01057H494.85389V499Z"
     transform="translate(-92.43613 -187)"
     fill="#3f3d56"
     id="path36"
     style="fill:#999999" />
</svg>
