<?xml version="1.0" encoding="UTF-8" standalone="no"?>
<svg
   id="06c42c9d-6d9c-45ee-a61b-17902c1dca73"
   data-name="Layer 1"
   width="1145.57"
   height="819.91"
   viewBox="0 0 1145.57 819.91"
   version="1.1"
   sodipodi:docname="undraw_security_o890.svg"
   inkscape:version="1.1 (c68e22c387, 2021-05-23)"
   xmlns:inkscape="http://www.inkscape.org/namespaces/inkscape"
   xmlns:sodipodi="http://sodipodi.sourceforge.net/DTD/sodipodi-0.dtd"
   xmlns:xlink="http://www.w3.org/1999/xlink"
   xmlns="http://www.w3.org/2000/svg"
   xmlns:svg="http://www.w3.org/2000/svg">
  <sodipodi:namedview
     id="namedview176"
     pagecolor="#ffffff"
     bordercolor="#666666"
     borderopacity="1.0"
     inkscape:pageshadow="2"
     inkscape:pageopacity="0.0"
     inkscape:pagecheckerboard="0"
     showgrid="false"
     inkscape:zoom="1.0147456"
     inkscape:cx="572.55732"
     inkscape:cy="409.46225"
     inkscape:window-width="1920"
     inkscape:window-height="1057"
     inkscape:window-x="1912"
     inkscape:window-y="-8"
     inkscape:window-maximized="1"
     inkscape:current-layer="06c42c9d-6d9c-45ee-a61b-17902c1dca73" />
  <defs
     id="defs10">
    <linearGradient
       id="2f697947-2a6f-450c-95af-56e5336b1d5f"
       x1="591.3"
       y1="646.08"
       x2="591.3"
       y2="107.75"
       gradientUnits="userSpaceOnUse">
      <stop
         offset="0"
         stop-color="gray"
         stop-opacity="0.25"
         id="stop2" />
      <stop
         offset="0.54"
         stop-color="gray"
         stop-opacity="0.12"
         id="stop4" />
      <stop
         offset="1"
         stop-color="gray"
         stop-opacity="0.1"
         id="stop6" />
    </linearGradient>
    <linearGradient
       id="2563b911-9cd4-457d-b636-acc38b40f33a"
       x1="944.34"
       y1="854.67"
       x2="944.34"
       y2="289.29"
       xlink:href="#2f697947-2a6f-450c-95af-56e5336b1d5f" />
  </defs>
  <title
     id="title12">security</title>
  <path
     d="M1154.4,591.26c-26.57,54.81-80.52,91.46-136.43,115.63-75.27,32.55-158.16,45.46-239.91,40q-21.49-1.43-42.85-4.57a540.44,540.44,0,0,1-143.27-41.72q-19.74-8.89-38.68-19.41a494.85,494.85,0,0,1-60.46-39.54q-7.23-5.52-14.26-11.32c-3.25-2.68-6.47-5.42-9.74-8.08-6.9-5.61-14-10.94-21.92-14.93a78.31,78.31,0,0,0-7.34-3.24c-25.08-9.54-54-5.94-80.11,1.5-19.86,5.66-39.22,13.41-59.06,18.94a196,196,0,0,1-26.91,5.72A143.21,143.21,0,0,1,213,624.93l-1.67-.52q-4.2-1.32-8.33-2.89l-1.67-.64q-4-1.54-7.83-3.31l-1.67-.76q-4-1.86-7.83-3.93c-.92-.48-1.83-1-2.73-1.49a163.67,163.67,0,0,1-39.16-30.49c-.33-.33-.64-.67-1-1-1.59-1.72-3.15-3.47-4.66-5.26-.56-.66-1.12-1.32-1.67-2q-2.69-3.28-5.19-6.71c-.25-.33-.49-.67-.73-1A144.59,144.59,0,0,1,112,534.44c-.14-.33-.27-.67-.39-1q-2-5.15-3.65-10.47c-.45-1.48-.88-3-1.26-4.48-.13-.44-.25-.89-.36-1.33-5.52-21.73-6.15-44.32-6.15-66.78q0-3.93,0-7.85c.16-36.33.72-73.28,6.08-109.11,0-.25.07-.5.11-.74a340.76,340.76,0,0,1,7.31-35.82A264.25,264.25,0,0,1,126,260.56c12.33-29,30.26-55.39,50.17-79.85C226.32,119.16,292.09,67.49,369.07,48.15c82.95-20.83,175.14-.87,242.05,52.4,20.4,16.24,38.73,35.47,61.64,47.92,20,10.84,43.41,15.33,64.83,6.8,17.7-7.05,29.22-10.55,49.1-9.48A411.56,411.56,0,0,1,907.05,171c1.56.57,3.12,1.16,4.67,1.75C1012.43,211.28,1099,287.83,1144,386.2q1.79,3.9,3.47,7.86C1174.3,456.73,1184,530.18,1154.4,591.26Z"
     transform="translate(-26.97 -40.04)"
     fill="#6c63ff"
     opacity="0.1"
     id="path14"
     style="fill:#ffcc00" />
  <rect
     x="116.14"
     y="107.75"
     width="950.33"
     height="538.33"
     rx="12.49"
     ry="12.49"
     fill="url(#2f697947-2a6f-450c-95af-56e5336b1d5f)"
     id="rect20" />
  <rect
     x="117.65"
     y="115.32"
     width="947.42"
     height="528.97"
     rx="12.49"
     ry="12.49"
     fill="#fff"
     id="rect22" />
  <rect
     x="117.65"
     y="115.32"
     width="947.42"
     height="528.97"
     rx="12.49"
     ry="12.49"
     fill="#fff"
     id="rect24" />
  <rect
     x="117.65"
     y="115.32"
     width="947.42"
     height="528.97"
     rx="12.49"
     ry="12.49"
     fill="#fff"
     opacity="0.04"
     id="rect26" />
  <path
     d="M1087.23,149.29H149.43a4.81,4.81,0,0,0-4.81,4.81v20.33H1092V154.1A4.81,4.81,0,0,0,1087.23,149.29Z"
     transform="translate(-26.97 -40.04)"
     fill="#5a5773"
     id="path28" />
  <g
     id="6c975d28-8d47-4ade-9154-b3b78f637b65"
     data-name="buttons">
    <circle
       cx="136.57"
       cy="121.82"
       r="6.5"
       fill="#fff"
       id="circle30" />
    <circle
       cx="154.07"
       cy="121.82"
       r="6.5"
       fill="#fff"
       id="circle32" />
    <circle
       cx="171.57"
       cy="121.82"
       r="6.5"
       fill="#fff"
       id="circle34" />
  </g>
  <rect
     x="195.68"
     y="181.67"
     width="254.25"
     height="21.58"
     fill="#6c63ff"
     opacity="0.2"
     id="rect37" />
  <rect
     x="195.68"
     y="268.2"
     width="791.36"
     height="331.96"
     fill="#5a5773"
     opacity="0.1"
     id="rect39" />
  <path
     d="M686,329.89H672.45V303.57c0-29.7-23.68-54.39-53.38-54.84a54.28,54.28,0,0,0-54.85,54.11v27.05H550.7a22.62,22.62,0,0,0-22.55,22.55V460.66a22.62,22.62,0,0,0,22.55,22.55H686a22.61,22.61,0,0,0,22.54-22.55V352.44A22.61,22.61,0,0,0,686,329.89Zm-59.75,70.35V439a8.09,8.09,0,0,1-7.5,8.12,7.91,7.91,0,0,1-8.28-7.9v-39a18,18,0,1,1,15.78,0Zm30.44-70.35H580V302.84a38.33,38.33,0,0,1,76.66,0Z"
     transform="translate(-26.97 -40.04)"
     opacity="0.1"
     id="path41" />
  <path
     d="M686,327.89H672.45V301.57c0-29.7-23.68-54.39-53.38-54.84a54.28,54.28,0,0,0-54.85,54.11v27.05H550.7a22.62,22.62,0,0,0-22.55,22.55V458.66a22.62,22.62,0,0,0,22.55,22.55H686a22.61,22.61,0,0,0,22.54-22.55V350.44A22.61,22.61,0,0,0,686,327.89Zm-59.75,70.35V437a8.09,8.09,0,0,1-7.5,8.12,7.91,7.91,0,0,1-8.28-7.9v-39a18,18,0,1,1,15.78,0Zm30.44-70.35H580V300.84a38.33,38.33,0,0,1,76.66,0Z"
     transform="translate(-26.97 -40.04)"
     fill="#6c63ff"
     id="path43" />
  <rect
     x="906.94"
     y="236.25"
     width="80.1"
     height="18.91"
     fill="#5a5773"
     opacity="0.1"
     id="rect45" />
  <path
     d="M891.37,493.1v0a23.25,23.25,0,0,1-.57,4c0-.37,0-.58-.08-.61C890.42,496.41,890.78,494.88,891.37,493.1Z"
     transform="translate(-26.97 -40.04)"
     opacity="0.1"
     id="path97" />
  <path
     d="m 957.99347,820.84571 a 75.18955,75.18955 0 0 1 -18.6395,-2.41115 l -1.2,-0.332 -1.1131,-0.55768 c -40.242,-20.17656 -74.192,-46.827 -100.9071,-79.21137 a 299.86458,299.86458 0 0 1 -50.9491,-90.47014 348.20978,348.20978 0 0 1 -19.6909,-122.66453 c 0.017,-0.87611 0.031,-1.55256 0.031,-2.01861 0,-20.28912 11.262,-38.0913 28.6912,-45.35357 13.3395,-5.55813 134.4554,-55.30526 143.2063,-58.89963 16.4804,-8.25772 34.062,-1.36535 36.8756,-0.16006 6.3109,2.58025 118.27523,48.375 142.47063,59.89621 24.9358,11.87415 31.5889,33.20566 31.5889,43.93787 0,48.58822 -8.415,93.99778 -25.0113,134.9674 a 312.51684,312.51684 0 0 1 -56.1621,90.51087 c -45.8468,51.59381 -91.70573,69.8841 -92.14833,70.0453 a 50.11,50.11 0 0 1 -17.0426,2.72109 z m -10.7845,-26.71374 c 3.9758,0.89138 13.1295,2.22845 19.0957,0.052 7.5793,-2.76408 45.96243,-22.668 81.83033,-63.03189 49.5571,-55.769 74.7025,-125.87542 74.7392,-208.37177 -0.088,-1.67134 -1.2754,-13.59188 -17.0615,-21.10867 -23.7263,-11.29833 -140.10363,-58.88488 -141.27643,-59.3645 l -0.3215,-0.13631 c -2.4389,-1.022 -10.2006,-3.1747 -15.5508,-0.371 l -1.0713,0.49943 c -1.2972,0.53279 -129.8631,53.33754 -143.5748,59.05064 -9.5917,3.99651 -13.0091,13.89729 -13.0091,21.83037 0,0.57973 -0.015,1.423 -0.036,2.51294 -1.0959,56.44716 11.9663,195.34603 156.2364,268.43876 z"
     fill="#3f3d56"
     id="path10" />
  <path
     d="m 942.75177,430.51273 c 0,0 -129.7345,53.28381 -143.6347,59.07553 -13.9001,5.79172 -20.8502,19.69184 -20.8502,33.592 0,13.90016 -10.425,195.27813 164.4849,282.97404 0,0 15.8748,4.39241 27.9188,0 12.044,-4.39241 164.94543,-78.52642 164.94543,-283.55325 0,0 0,-20.85018 -24.3252,-32.43362 -24.3252,-11.58344 -141.93363,-59.6547 -141.93363,-59.6547 0,0 -14.4428,-6.37089 -26.6054,0 z"
     fill="#6c63ff"
     id="path12" />
  <path
     d="m 956.65187,472.2131 v 284.25025 c 0,0 -130.8928,-63.0066 -129.7345,-228.64973 z"
     opacity="0.1"
     id="path14-6" />
  <polygon
     points="175.483,189.11 195.226,214.494 261.921,144.088 284.224,165.219 192.931,261.581 151.235,207.969 "
     fill="#ffffff"
     id="polygon16"
     transform="translate(765.42787,414.92662)" />
</svg>
